Coordinates
version=1
nRows=13
nColumns=40
inDegrees=yes

Units are S.I. units (second, meters, Newtons, ...)
Angles are in degrees.

endheader
time	pelvis_tilt	pelvis_list	pelvis_rotation	pelvis_tx	pelvis_ty	pelvis_tz	hip_flexion_r	hip_adduction_r	hip_rotation_r	knee_angle_r	knee_angle_r_beta	ankle_angle_r	subtalar_angle_r	mtp_angle_r	hip_flexion_l	hip_adduction_l	hip_rotation_l	knee_angle_l	knee_angle_l_beta	ankle_angle_l	subtalar_angle_l	mtp_angle_l	lumbar_extension	lumbar_bending	lumbar_rotation	arm_flex_r	arm_add_r	arm_rot_r	elbow_flex_r	pro_sup_r	wrist_flex_r	wrist_dev_r	arm_flex_l	arm_add_l	arm_rot_l	elbow_flex_l	pro_sup_l	wrist_flex_l	wrist_dev_l
     34.82578571	     -6.77781116	     -3.90202177	    -16.45020090	      1.03821199	      0.93312511	      0.44612550	     21.29619852	     -0.29660371	     -3.13767817	     15.99270404	     15.99270404	      9.09886310	     12.99152767	      7.07065704	      8.55059048	     -5.31448758	    -19.86731691	     14.93148981	     14.93148981	     12.50342752	    -12.82764948	     -3.67986285	     -8.48055866	      5.01720140	      0.83855499	    -17.40470260	    -10.90874740	     -3.44112928	     29.82333228	     46.11037764	      0.00000000	      0.00000000	     29.49802077	    -17.27408424	    -22.20901233	     78.74182743	     49.21006993	      0.00000000	      0.00000000
     34.84657143	     -6.56185724	     -3.29197151	    -16.32634495	      1.03836522	      0.93219246	      0.44857693	     21.28945700	     -0.72060917	     -2.70147852	     16.15480992	     16.15480992	      8.98213458	     13.00246546	      6.88970246	      7.79554118	     -4.58209324	    -20.14661928	     14.20029731	     14.20029731	     12.53385656	    -12.24623977	     -4.07615210	     -8.30950962	      4.43226508	      0.69498461	    -17.30829210	    -10.96272613	     -3.32944971	     29.78371270	     46.10428531	      0.00000000	      0.00000000	     29.23519551	    -16.97034566	    -22.31307664	     78.68417532	     49.20278820	      0.00000000	      0.00000000
     34.86735714	     -6.32986009	     -2.69413679	    -16.12791339	      1.03870596	      0.93133162	      0.45109249	     21.33798167	     -1.17742865	     -2.24528462	     16.74436532	     16.74436532	      9.00048482	     12.69419075	      6.40411592	      7.01357547	     -3.86230446	    -20.37748808	     13.46398553	     13.46398553	     12.53119865	    -11.55229371	     -4.57116589	     -8.15343708	      3.88373931	      0.54063431	    -17.19057163	    -11.10718743	     -3.23915606	     29.73644644	     46.10057038	      0.00000000	      0.00000000	     28.84893645	    -16.58633285	    -22.50515189	     78.53317534	     49.20001600	      0.00000000	      0.00000000
     34.88814286	     -6.07739405	     -2.14841501	    -15.82797477	      1.03918613	      0.93060129	      0.45368254	     21.36202899	     -1.61024792	     -1.73994402	     17.57802116	     17.57802116	      9.10971760	     11.98003683	      5.64710298	      6.18043183	     -3.18644280	    -20.50439340	     12.68804146	     12.68804146	     12.46680465	    -10.84814950	     -5.13224467	     -8.05569762	      3.40111452	      0.31442430	    -17.09165960	    -11.34705588	     -3.14890763	     29.67734819	     46.09734385	      0.00000000	      0.00000000	     28.39807190	    -16.15710888	    -22.77385661	     78.31315491	     49.19961159	      0.00000000	      0.00000000
     34.90892857	     -5.86776311	     -1.69205601	    -15.43761346	      1.03967609	      0.93000659	      0.45639083	     21.36943845	     -1.95869106	     -1.22357063	     18.49778900	     18.49778900	      9.30934628	     11.02292494	      4.84481160	      5.41375609	     -2.63403603	    -20.46115399	     11.98867977	     11.98867977	     12.38418950	    -10.21178751	     -5.59699585	     -7.99754550	      3.02713401	      0.06819990	    -17.03396488	    -11.65337239	     -3.08354036	     29.63864184	     46.09479924	      0.00000000	      0.00000000	     27.86038355	    -15.69154453	    -23.00160225	     78.03215743	     49.19586539	      0.00000000	      0.00000000
     34.92971429	     -5.64161989	     -1.31261277	    -14.98952316	      1.04023400	      0.92953059	      0.45935302	     21.10849587	     -2.16775220	     -0.53201557	     19.00960918	     19.00960918	      8.48477542	      9.33879448	      0.97280306	      4.47352844	     -2.10758307	    -20.15428216	     10.92849455	     10.92849455	     11.36961500	    -10.32036066	     -7.81282065	     -7.94254565	      2.71289729	     -0.42696807	    -16.86758639	    -12.18533222	     -1.99886270	     29.57421038	     46.01959242	      0.00000000	      0.00000000	     27.19663201	    -15.14154632	    -24.02309844	     77.89538193	     49.15813313	      0.00000000	      0.00000000
     34.95050000	     -5.52086454	     -1.05587399	    -14.46929309	      1.04057031	      0.92920062	      0.46244565	     21.08778445	     -2.33502627	     -0.29086007	     19.96164857	     19.96164857	      8.97431568	      8.28985991	      0.63283179	      3.87490126	     -1.87256622	    -19.87475950	     10.47086454	     10.47086454	     11.45527479	     -9.79278404	     -7.78805919	     -7.90526625	      2.55764271	     -0.61679263	    -16.91297227	    -12.55407357	     -2.00275847	     29.60078267	     46.01870281	      0.00000000	      0.00000000	     26.57275973	    -14.72415050	    -23.93387734	     77.54250513	     49.13297985	      0.00000000	      0.00000000
     34.97128571	     -5.44161328	     -0.84748420	    -13.91015298	      1.04074439	      0.92902636	      0.46583827	     20.97242519	     -2.38349047	      0.08286992	     20.67820823	     20.67820823	      9.42322570	      6.87973361	      0.38286083	      3.32901931	     -1.73654084	    -19.54874377	     10.03238366	     10.03238366	     11.50228012	     -9.26313876	     -7.69886151	     -7.87631339	      2.38124467	     -0.85015955	    -17.01050890	    -12.92101255	     -1.97930589	     29.68559446	     46.01274005	      0.00000000	      0.00000000	     25.98663410	    -14.35259378	    -23.87611367	     77.09097178	     49.10496051	      0.00000000	      0.00000000
     34.99207143	     -5.42976548	     -0.83716597	    -13.24043933	      1.04074405	      0.92897887	      0.46936675	     20.69066127	     -2.32670873	     -0.14169021	     21.04411937	     21.04411937	      9.83431798	      6.24957470	      0.21437521	      3.01602391	     -1.92157804	    -19.05734321	      9.96645387	      9.96645387	     11.60150191	     -8.95789842	     -7.71566984	     -7.88421979	      2.41171910	     -1.03369620	    -17.15945292	    -13.25609583	     -2.00620783	     29.64851928	     46.01523068	      0.00000000	      0.00000000	     25.35690191	    -13.82720352	    -23.72794351	     76.78993174	     49.08153036	      0.00000000	      0.00000000
     35.01285714	     -5.46608390	     -0.88926576	    -12.60539101	      1.04052801	      0.92894982	      0.47330162	     20.47199746	     -2.13302751	     -0.29877546	     21.42013724	     21.42013724	     10.26868762	      5.42027407	      0.05359981	      2.73029508	     -2.21324094	    -18.61205338	      9.85598998	      9.85598998	     11.67073560	     -8.63787074	     -7.63508168	     -7.89617114	      2.49759767	     -1.15757685	    -17.28495515	    -13.58025514	     -2.02045264	     29.65057691	     46.01526746	      0.00000000	      0.00000000	     24.69674154	    -13.43650234	    -23.57621299	     76.38989415	     49.05515450	      0.00000000	      0.00000000
     35.03364286	     -5.53250393	     -0.96597851	    -11.94708614	      1.04016147	      0.92897056	      0.47744218	     20.20908455	     -1.90904619	     -0.56700811	     21.62465406	     21.62465406	     10.68130125	      4.73814912	     -0.06827050	      2.53346742	     -2.57583337	    -18.11060280	      9.83085914	      9.83085914	     11.73666759	     -8.34390426	     -7.56160315	     -7.91066815	      2.54030917	     -1.25825558	    -17.41746559	    -13.84441259	     -2.03024795	     29.63608032	     46.01558523	      0.00000000	      0.00000000	     24.00974291	    -13.04343470	    -23.39567469	     75.99171713	     49.02783040	      0.00000000	      0.00000000
     35.05442857	     -5.66424861	     -1.25620424	    -11.31516698	      1.03955922	      0.92915286	      0.48218175	     19.82588051	     -1.23161280	     -0.25412756	     21.49393081	     21.49393081	     10.76481509	      2.95398373	     -0.11926708	      2.63058764	     -3.37400451	    -18.06637598	     10.43557715	     10.43557715	     12.97911905	     -7.04292917	     -5.36995021	     -7.86441329	      2.79791922	     -0.91582679	    -18.02578220	    -14.22311854	     -1.18385018	     30.36651619	     45.91849182	      0.00000000	      0.00000000	     23.79397810	    -13.10247968	    -21.59321608	     74.01205061	     48.79807029	      0.00000000	      0.00000000
     35.07521429	     -5.80460181	     -1.49158284	    -10.62261891	      1.03893600	      0.92923878	      0.48679759	     19.46005889	     -0.80195026	     -0.72082927	     21.33510099	     21.33510099	     11.00236406	      2.47269483	     -0.16553029	      2.66035581	     -4.02041891	    -17.54944879	     10.69044918	     10.69044918	     13.18066266	     -6.78330033	     -4.99930543	     -7.83004204	      2.96828117	     -1.09310678	    -18.05445532	    -14.46427768	     -1.08397052	     30.43687425	     45.90911766	      0.00000000	      0.00000000	     22.90082812	    -12.93987947	    -21.19147545	     73.29941346	     48.73500540	      0.00000000	      0.00000000
